<?xml version="1.0" encoding="UTF-8"?>
<svg width="18px" height="17px" viewBox="0 0 18 17" version="1.1" xmlns="http://www.w3.org/2000/svg" xmlns:xlink="http://www.w3.org/1999/xlink">
    <!-- Generator: Sketch 51.3 (57544) - http://www.bohemiancoding.com/sketch -->
    <title>色彩icon</title>
    <desc>Created with Sketch.</desc>
    <defs></defs>
    <g id="定稿" stroke="none" stroke-width="1" fill="none" fill-rule="evenodd">
        <g id="组件展示-1440" transform="translate(-31.000000, -217.000000)" stroke="#222222">
            <g id="左侧栏">
                <g id="色彩" transform="translate(32.000000, 214.000000)">
                    <g id="色彩icon" transform="translate(0.000000, 4.000000)">
                        <path d="M15.7326883,6.6146069 C15.4882493,4.96913733 13.6877299,-0.524030997 6.67677224,0.503192848 C-0.334185404,1.53041669 -1.34467768,10.755777 3.23130718,13.8608571 C5.36930134,15.5045799 7.07336518,15.598315 8.00378083,15.4323888 C9.06796803,15.2426064 9.19998294,14.6248126 9.18625562,14.0791854 C9.18625562,13.1203139 7.81495059,12.4042571 8.76974216,11.3677121 C9.72453373,10.3311672 11.4723905,12.3323413 13.6244088,11.1303336 C15.7764271,9.92832593 15.9771272,8.26007646 15.7326883,6.6146069 Z" id="Path-2"></path>
                        <circle id="Oval-2" cx="4" cy="8" r="1"></circle>
                        <path d="M5.82089641,5.32444356 C6.37318116,5.32444356 6.82089641,4.87672831 6.82089641,4.32444356 C6.82089641,3.77215881 6.37318116,3.32444356 5.82089641,3.32444356 C5.26861166,3.32444356 4.82089641,3.77215881 4.82089641,4.32444356 C4.82089641,4.87672831 5.26861166,5.32444356 5.82089641,5.32444356 Z" id="Oval-2-Copy"></path>
                        <path d="M10.2488731,5.26325723 C10.8011579,5.26325723 11.2488731,4.81554198 11.2488731,4.26325723 C11.2488731,3.71097248 10.8011579,3.26325723 10.2488731,3.26325723 C9.69658836,3.26325723 9.24887311,3.71097248 9.24887311,4.26325723 C9.24887311,4.81554198 9.69658836,5.26325723 10.2488731,5.26325723 Z" id="Oval-2-Copy-2"></path>
                        <circle id="Oval-2-Copy-3" cx="12" cy="8" r="1"></circle>
                    </g>
                </g>
            </g>
        </g>
    </g>
</svg>