<?xml version="1.0" encoding="UTF-8"?>
<svg width="14px" height="14px" viewBox="0 0 14 14" version="1.1" xmlns="http://www.w3.org/2000/svg" xmlns:xlink="http://www.w3.org/1999/xlink">
    <!-- Generator: Sketch 51.3 (57544) - http://www.bohemiancoding.com/sketch -->
    <title>布局icon</title>
    <desc>Created with Sketch.</desc>
    <defs></defs>
    <g id="定稿" stroke="none" stroke-width="1" fill="none" fill-rule="evenodd">
        <g id="组件展示-1440" transform="translate(-33.000000, -163.000000)" fill="#222222" fill-rule="nonzero">
            <g id="左侧栏">
                <g id="布局" transform="translate(33.000000, 158.000000)">
                    <g id="布局icon" transform="translate(0.000000, 5.000000)">
                        <path d="M1,1 L1,13 L13,13 L13,1 L1,1 Z M1,0 L13,0 C13.5522847,-1.01453063e-16 14,0.44771525 14,1 L14,13 C14,13.5522847 13.5522847,14 13,14 L1,14 C0.44771525,14 6.76353751e-17,13.5522847 0,13 L0,1 C-6.76353751e-17,0.44771525 0.44771525,1.01453063e-16 1,0 Z M4,1 L5,1 L5,13 L4,13 L4,1 Z M8,5 L9,5 L9,13 L8,13 L8,5 Z M5,4 L13,4 L13,5 L5,5 L5,4 Z" id="Rectangle-2"></path>
                    </g>
                </g>
            </g>
        </g>
    </g>
</svg>