<?xml version="1.0" encoding="UTF-8"?>
<svg width="13px" height="13px" viewBox="0 0 13 13" version="1.1" xmlns="http://www.w3.org/2000/svg" xmlns:xlink="http://www.w3.org/1999/xlink">
    <!-- Generator: Sketch 51.3 (57544) - http://www.bohemiancoding.com/sketch -->
    <title>定制主题icon</title>
    <desc>Created with Sketch.</desc>
    <defs></defs>
    <g id="定稿" stroke="none" stroke-width="1" fill="none" fill-rule="evenodd">
        <g id="组件展示-1440" transform="translate(-33.000000, -276.000000)" stroke="#000000">
            <g id="左侧栏">
                <g id="定制主题" transform="translate(33.000000, 270.000000)">
                    <g id="定制主题icon" transform="translate(0.000000, 6.000000)">
                        <path d="M0.5,0.5 L0.5,5 C0.5,5.27614237 0.723857625,5.5 1,5.5 L5.5,5.5 L5.5,1 C5.5,0.723857625 5.27614237,0.5 5,0.5 L0.5,0.5 Z" id="Rectangle-3"></path>
                        <path d="M0.5,7.5 L0.5,12 C0.5,12.2761424 0.723857625,12.5 1,12.5 L5.5,12.5 L5.5,8 C5.5,7.72385763 5.27614237,7.5 5,7.5 L0.5,7.5 Z" id="Rectangle-3-Copy-3" transform="translate(3.000000, 10.000000) scale(1, -1) translate(-3.000000, -10.000000) "></path>
                        <path d="M7.5,0.5 L7.5,5 C7.5,5.27614237 7.72385763,5.5 8,5.5 L12.5,5.5 L12.5,1 C12.5,0.723857625 12.2761424,0.5 12,0.5 L7.5,0.5 Z" id="Rectangle-3-Copy" transform="translate(10.000000, 3.000000) scale(-1, 1) translate(-10.000000, -3.000000) "></path>
                        <path d="M7.5,7.5 L7.5,12 C7.5,12.2761424 7.72385763,12.5 8,12.5 L12.5,12.5 L12.5,8 C12.5,7.72385763 12.2761424,7.5 12,7.5 L7.5,7.5 Z" id="Rectangle-3-Copy-2" transform="translate(10.000000, 10.000000) scale(-1, -1) translate(-10.000000, -10.000000) "></path>
                    </g>
                </g>
            </g>
        </g>
    </g>
</svg>