<?xml version="1.0" encoding="UTF-8"?>
<svg width="15px" height="14px" viewBox="0 0 15 14" version="1.1" xmlns="http://www.w3.org/2000/svg" xmlns:xlink="http://www.w3.org/1999/xlink">
    <!-- Generator: Sketch 51.3 (57544) - http://www.bohemiancoding.com/sketch -->
    <title>组件icon</title>
    <desc>Created with Sketch.</desc>
    <defs></defs>
    <g id="定稿" stroke="none" stroke-width="1" fill="none" fill-rule="evenodd">
        <g id="组件展示-1440" transform="translate(-33.000000, -331.000000)" stroke="#000000">
            <g id="左侧栏">
                <g id="组件" transform="translate(33.000000, 326.000000)">
                    <g id="Group-9">
                        <g id="组件icon" transform="translate(0.000000, 5.000000)">
                            <path d="M8.30246301,0.698384668 C7.79883696,0.433871777 7.20116304,0.433871777 6.69753699,0.698384668 L0.537474839,3.93375314 C0.525667248,3.93995468 0.515503784,3.95028466 0.5087204,3.96362671 C0.489335817,4.00175372 0.504049452,4.04869129 0.537474839,4.06624686 L6.69753699,7.30161533 C7.20116304,7.56612822 7.79883696,7.56612822 8.30246301,7.30161533 L14.4625252,4.06624686 C14.4743328,4.06004532 14.4844962,4.04971534 14.4912796,4.03637329 C14.5106642,3.99824628 14.4959505,3.95130871 14.4625252,3.93375314 L8.30246301,0.698384668 Z" id="Rectangle-4"></path>
                            <path d="M11.5513115,5.58425212 L3.26115853,5.69026209 C2.95533777,5.83694281 2.90437671,5.86163611 2.8325046,5.89826249 C1.93786627,6.35417466 1.93786627,6.35417466 0.532006023,7.07060806 C0.520355735,7.0765451 0.511327044,7.08544894 0.505899896,7.09580616 C0.492627834,7.12113467 0.502678229,7.15224315 0.532006023,7.16718874 L6.69206817,10.3063872 C7.19863785,10.5645376 7.80136215,10.5645376 8.30793183,10.3063872 L14.467994,7.16718874 C14.4796443,7.16125169 14.488673,7.15234785 14.4941001,7.14199064 C14.5073722,7.11666213 14.4973218,7.08555365 14.467994,7.07060806 C12.6778345,6.15833387 12.6202764,6.12900194 11.5513115,5.58425212 Z" id="Rectangle-4-Copy"></path>
                            <path d="M11.5520584,8.58463274 L3.20381579,8.7177653 C2.95442704,8.8374107 2.89936377,8.86419073 2.8325046,8.89826249 C1.93786627,9.35417466 1.93786627,9.35417466 0.532006023,10.0706081 C0.520355735,10.0765451 0.511327044,10.0854489 0.505899896,10.0958062 C0.492627834,10.1211347 0.502678229,10.1522431 0.532006023,10.1671887 L6.69206817,13.3063872 C7.19863785,13.5645376 7.80136215,13.5645376 8.30793183,13.3063872 L14.467994,10.1671887 C14.4796443,10.1612517 14.488673,10.1523479 14.4941001,10.1419906 C14.5073722,10.1166621 14.4973218,10.0855536 14.467994,10.0706081 C12.6782516,9.15854639 12.6203033,9.12901566 11.5520584,8.58463274 Z" id="Rectangle-4-Copy-2"></path>
                        </g>
                    </g>
                </g>
            </g>
        </g>
    </g>
</svg>