<?xml version="1.0" encoding="UTF-8"?>
<svg width="14px" height="14px" viewBox="0 0 14 14" version="1.1" xmlns="http://www.w3.org/2000/svg" xmlns:xlink="http://www.w3.org/1999/xlink">
    <!-- Generator: Sketch 51.3 (57544) - http://www.bohemiancoding.com/sketch -->
    <title>其他</title>
    <desc>Created with Sketch.</desc>
    <defs></defs>
    <g id="定稿" stroke="none" stroke-width="1" fill="none" fill-rule="evenodd">
        <g id="问题解答页设计" transform="translate(-33.000000, -293.000000)" fill="#222222" fill-rule="nonzero">
            <g id="左侧栏">
                <g id="其他" transform="translate(32.000000, 292.000000)">
                    <path d="M2.33333333,2.33333333 L2.33333333,13.6666667 L13.6666667,13.6666667 L13.6666667,2.33333333 L2.33333333,2.33333333 Z M1.66666667,1 L14.3333333,1 C14.7015232,1 15,1.29847683 15,1.66666667 L15,14.3333333 C15,14.7015232 14.7015232,15 14.3333333,15 L1.66666667,15 C1.29847683,15 1,14.7015232 1,14.3333333 L1,1.66666667 C1,1.29847683 1.29847683,1 1.66666667,1 Z" id="Rectangle"></path>
                    <rect id="Rectangle-3" x="4" y="7.33333333" width="1.33333333" height="1.33333333"></rect>
                    <rect id="Rectangle-3-Copy" x="7.33333333" y="7.33333333" width="1.33333333" height="1.33333333"></rect>
                    <rect id="Rectangle-3-Copy-2" x="10.6666667" y="7.33333333" width="1.33333333" height="1.33333333"></rect>
                </g>
            </g>
        </g>
    </g>
</svg>