<?xml version="1.0" encoding="UTF-8"?>
<svg width="14px" height="14px" viewBox="0 0 14 14" version="1.1" xmlns="http://www.w3.org/2000/svg" xmlns:xlink="http://www.w3.org/1999/xlink">
    <!-- Generator: Sketch 51.3 (57544) - http://www.bohemiancoding.com/sketch -->
    <title>常见问题</title>
    <desc>Created with Sketch.</desc>
    <defs></defs>
    <g id="定稿" stroke="none" stroke-width="1" fill="none" fill-rule="evenodd">
        <g id="问题解答页设计" transform="translate(-33.000000, -117.000000)" fill="#222222" fill-rule="nonzero">
            <g id="左侧栏">
                <g id="常见问题" transform="translate(32.000000, 116.000000)">
                    <path d="M2.33333333,2.33333333 L2.33333333,13.6666667 L13.6666667,13.6666667 L13.6666667,2.33333333 L2.33333333,2.33333333 Z M1.66666667,1 L14.3333333,1 C14.7015232,1 15,1.29847683 15,1.66666667 L15,14.3333333 C15,14.7015232 14.7015232,15 14.3333333,15 L1.66666667,15 C1.29847683,15 1,14.7015232 1,14.3333333 L1,1.66666667 C1,1.29847683 1.29847683,1 1.66666667,1 Z" id="Rectangle"></path>
                    <path d="M8.66666667,9.59232786 L8.66666667,10.3333333 L7.33333333,10.3333333 L7.33333333,8.33333333 L8,8.33333333 C8.92047458,8.33333333 9.66666667,7.58714125 9.66666667,6.66666667 C9.66666667,5.74619208 8.92047458,5 8,5 C7.07952542,5 6.33333333,5.74619208 6.33333333,6.66666667 L5,6.66666667 C5,5.00981242 6.34314575,3.66666667 8,3.66666667 C9.65685425,3.66666667 11,5.00981242 11,6.66666667 C11,8.0943916 10.0026591,9.28917508 8.66666667,9.59232786 Z" id="Oval-2"></path>
                    <rect id="Rectangle-4" x="7.33333333" y="11.3333333" width="1.33333333" height="1.33333333"></rect>
                </g>
            </g>
        </g>
    </g>
</svg>