<?xml version="1.0" encoding="UTF-8"?>
<svg width="13px" height="13px" viewBox="0 0 13 13" version="1.1" xmlns="http://www.w3.org/2000/svg" xmlns:xlink="http://www.w3.org/1999/xlink">
    <!-- Generator: Sketch 51.3 (57544) - http://www.bohemiancoding.com/sketch -->
    <title>搜索</title>
    <desc>Created with Sketch.</desc>
    <defs></defs>
    <g id="定稿" stroke="none" stroke-width="1" fill="none" fill-rule="evenodd">
        <g id="代码页设计-1440" transform="translate(-627.000000, -365.000000)" fill="#768AA8" fill-rule="nonzero">
            <g id="左侧代码区" transform="translate(280.000000, 266.000000)">
                <g id="搜索" transform="translate(346.000000, 98.000000)">
                    <path d="M7,11.6666667 C9.57732883,11.6666667 11.6666667,9.57732883 11.6666667,7 C11.6666667,4.42267117 9.57732883,2.33333333 7,2.33333333 C4.42267117,2.33333333 2.33333333,4.42267117 2.33333333,7 C2.33333333,9.57732883 4.42267117,11.6666667 7,11.6666667 Z M7,13 C3.6862915,13 1,10.3137085 1,7 C1,3.6862915 3.6862915,1 7,1 C10.3137085,1 13,3.6862915 13,7 C13,10.3137085 10.3137085,13 7,13 Z" id="Oval"></path>
                    <rect id="Rectangle" transform="translate(11.885618, 11.885618) rotate(-45.000000) translate(-11.885618, -11.885618) " x="11.2189514" y="9.88561808" width="1.33333333" height="4"></rect>
                </g>
            </g>
        </g>
    </g>
</svg>